PathFileType	4	(X/Y/Z)	Patient4_TMGait_0pt6_02_right_24.trc.trc
DataRate	CameraRate	NumFrames	NumMarkers	Units	OrigDataRate	OrigDataStartFrame	OrigNumFrames
81.871345029240	81.871345029240	6	33	mm	81.871345029240	1	       141
Frame#	Time	Sacral			L.Shoulder			Chest			R.Shoulder			Neck			R.ASIS			L.ASIS			R.Thigh.Superior			R.Thigh.Lateral			R.Thigh.Inferior			R.Patella			L.Thigh.Superior			L.Thigh.Lateral			L.Thigh.Inferior			L.Patella			L.Shank.Superior			L.Shank.Lateral			L.Shank.Inferior			R.Shank.Superior			R.Shank.Lateral			R.Shank.Inferior			R.Heel			R.Midfoot.Superior			R.Midfoot.Lateral			R.Toe			L.Heel			L.Midfoot.Lateral			L.Midfoot.Superior			L.Toe			L.Elbow			L.Wrist			R.Elbow			R.Wrist			
		X1	Y1	Z1	X2	Y2	Z2	X3	Y3	Z3	X4	Y4	Z4	X5	Y5	Z5	X6	Y6	Z6	X7	Y7	Z7	X8	Y8	Z8	X9	Y9	Z9	X10	Y10	Z10	X11	Y11	Z11	X12	Y12	Z12	X13	Y13	Z13	X14	Y14	Z14	X15	Y15	Z15	X16	Y16	Z16	X17	Y17	Z17	X18	Y18	Z18	X19	Y19	Z19	X20	Y20	Z20	X21	Y21	Z21	X22	Y22	Z22	X23	Y23	Z23	X24	Y24	Z24	X25	Y25	Z25	X26	Y26	Z26	X27	Y27	Z27	X28	Y28	Z28	X29	Y29	Z29	X30	Y30	Z30	X31	Y31	Z31	X32	Y32	Z32	X33	Y33	Z33	

1	28.760000000000	818.261634292900	1016.842309786095	411.667097529049	1015.450438985436	1435.992402436727	227.104465560883	1114.697892695600	1360.813820477584	386.842031134763	1036.768454892885	1440.424304798136	559.935469657291	1019.128108208896	1498.263866409297	378.247322263229	1042.065382099114	949.062331628121	526.340884781013	1030.833681928335	962.707899325249	253.549908686357	1129.817769980010	786.007869473465	490.705813345070	1099.984009160113	664.659339701332	565.809511654851	1187.154580722659	629.159665219545	481.182620946362	1211.407881572004	514.444880549912	501.929959163695	1079.661388375693	752.838454601770	286.341716543691	988.941189320604	637.973544729919	232.390787920153	1071.492259312061	560.622701392817	298.725859060076	1070.692690562765	490.796898287733	310.766286107824	1043.804090273476	419.812523886399	302.592238294900	954.383072675797	304.445559281910	254.540908820573	1005.872068166656	194.638576266817	327.367722389725	1134.215221760553	439.543442888473	513.327537012738	1012.826823964918	402.861251605729	575.981557356825	996.589764561903	292.872096496797	529.922932109147	796.124161000096	235.998055533657	503.362355755054	960.881300256331	168.389341448117	544.986886755120	851.960478421007	176.798003673391	579.480148625825	1019.638351263291	54.928976042791	578.824378133194	877.529608914787	39.223548446792	373.588269533407	950.205123283062	35.498669320516	291.908423454638	1034.139024203972	96.346539471804	317.239007800106	1162.501282728322	41.347045229358	287.044187084081	986.816773583385	1087.800363607043	93.140711401433	1147.554686169288	880.311692003478	87.549039765823	1020.343638957052	1086.244773562704	669.900056515646	1160.343683880238	864.702473276860	644.930261588852	
2	28.772214285714	816.892421636151	1017.428250833291	410.266640968900	1016.538515970068	1436.711494193715	227.233019709284	1114.499764843162	1360.895141803390	387.479976362104	1035.545404355138	1440.206665002950	560.356381558822	1019.152466302839	1498.582832654449	378.552964237284	1040.672956124917	950.044607312818	526.416210377386	1030.859504913606	963.488912169978	253.096447218799	1130.244065205618	789.687571416531	490.792373615735	1102.438799354082	668.123030599660	566.218051265745	1190.071039672321	634.022027737830	481.541724392314	1216.940812986320	520.679112998110	502.579846869003	1076.415127552198	752.023986448345	286.699882377742	984.902813146746	638.068704064021	231.825556018630	1066.062122100376	559.874447341198	298.578882739251	1064.484018563979	490.184305502056	310.469441372247	1037.484884248680	419.457546747225	302.296149057895	947.683217391860	304.455913269749	254.219737506413	998.400053160315	194.489025181381	327.261269711098	1142.924069177918	443.478552353634	514.014175813356	1023.825536121756	401.171904450654	576.606999618973	1012.838286883890	290.852518242431	530.540963337046	815.742515246624	224.682669532024	504.238077451909	983.121950463211	165.166791724384	545.500141391535	874.367496741595	168.104175268089	580.177163290785	1047.206389845165	54.749104217985	578.708694777506	869.704006233286	39.332427717363	373.539294073964	942.408822891425	35.524201637070	291.871503718414	1026.407339908988	96.318365723497	317.181224458825	1154.731603696045	41.265674265013	287.000945459217	990.313014398742	1089.433327027840	91.209422411670	1160.074559849830	890.576515188083	85.381735650856	1011.401047192541	1086.900872472118	670.571738952223	1132.569955501047	856.828157267003	651.826415065910	
3	28.784428571429	815.538184724331	1018.002211672398	408.920157398191	1017.626817817700	1437.394964904277	227.382825604037	1114.316227770481	1360.943245712560	388.128378819787	1034.359369090653	1439.967195484068	560.798072003313	1019.196666734985	1498.874714532803	378.879473722872	1039.269287064460	950.966183692945	526.488291794539	1030.824000721451	964.198904447507	252.670583767406	1130.580216374402	793.240576361539	490.884972936829	1104.724501739026	671.455097578733	566.632614641754	1192.800472398455	638.707208295780	481.923520493631	1222.215162480010	526.764886597242	503.241154120224	1073.226178419251	751.217947892019	287.044337904313	980.913886558656	638.150369751221	231.282726835659	1060.714924916380	559.128452349249	298.430941504645	1058.367554948881	489.577874913350	310.183950296649	1031.261018884665	419.099280229131	302.012204167183	941.076340241291	304.463091995843	253.912209213280	991.028225650714	194.336157145154	327.163013954787	1151.426278568863	447.305859213489	514.705954863860	1034.727975115339	399.360202206722	577.281631037242	1029.019761410800	288.769959947145	531.194004893597	835.432779165918	213.273447253114	505.187488165770	1005.358581437470	161.934261290311	546.031188132710	896.852033541569	159.385446038200	580.934754000629	1074.784730042021	54.673092656262	578.628794250471	861.969833712539	39.432441210352	373.491336815215	934.696407567636	35.547789545282	291.837206032988	1018.757353013199	96.290356257074	317.127156949365	1147.043336438628	41.182231904649	286.959504010133	993.752108548290	1091.030356478505	89.332931588597	1172.383133621810	900.824322540907	83.294733522812	1002.445178092755	1087.573809203873	671.274603415812	1105.216763796126	849.441521757649	658.489861147170	
4	28.796642857143	814.222299420625	1018.542464073718	407.686152646311	1018.707785490136	1438.004515771529	227.580832033524	1114.157189288389	1360.926453274534	388.804468544708	1033.244102121156	1439.690063190591	561.282156193080	1019.275517559884	1499.111237995927	379.250827929814	1037.858268159179	951.765866716063	526.569488327583	1030.691116972579	964.787679057638	252.305977448593	1130.722485818660	796.500470882735	491.007876767586	1106.649409505644	674.495820055415	567.083705732946	1195.125351351836	642.995776153614	482.362908238451	1226.944584991328	532.524260682341	503.931516576894	1070.137984193332	750.416947025834	287.370562127861	976.990891355426	638.208888888737	230.785393517695	1055.485239902494	558.380600848774	298.282363547082	1052.379075630367	488.978277510990	309.920613196807	1025.170061543698	418.733537689978	301.752016724514	934.597965670054	304.464655604776	253.629056933693	983.799758431998	194.177454676568	327.079555296356	1159.499352103182	450.904467544057	515.418339983036	1045.460089553950	397.294439728342	578.064434803787	1045.100276309319	286.580188658392	531.915659641086	855.367029748781	201.679128289875	506.282504227470	1027.650007947936	158.737245825977	546.606875402067	919.583696574858	150.643719308277	581.805014254458	1102.436398863207	54.889736763363	578.600542923142	854.361331651201	39.517129566390	373.445487190712	927.097031432716	35.567441961748	291.807449211384	1011.216214864969	96.262718686485	317.079802825593	1139.464034369747	41.096371013441	286.921305938305	997.092164802931	1092.558307375161	87.566261904577	1184.296703123395	911.098044609843	81.377750412662	993.418461037718	1088.332468921402	672.045382785264	1078.603401053930	843.025751288030	664.726901899187	
5	28.808857142857	812.966318985687	1019.030779601274	406.611794979766	1019.772275911935	1438.508189045049	227.850063531789	1114.028987345405	1360.820145500525	389.523611648074	1032.225185134046	1439.365898823728	561.825001203900	1019.400201935858	1499.269723488376	379.686096991152	1036.451817851306	952.396386656025	526.677820595830	1030.405025041107	965.195829023503	252.042401361645	1130.580446400488	799.317167444230	491.186564308815	1108.041460250404	677.100240940933	567.597552848675	1196.856510066533	646.691801504500	482.893003563271	1230.888705817816	537.801612857256	504.665923340037	1067.182440381740	749.612793004677	287.677373977165	973.133629306528	638.237757499133	230.352879382743	1050.381845795199	557.624523622046	298.134278391498	1046.525526355049	488.384692870447	309.687683725219	1019.219557005781	418.356432094848	301.524741128522	928.253412392172	304.458745273238	253.378241658976	976.724745115769	194.010552231558	327.016125164137	1166.958800424651	454.173667783394	516.165452083994	1055.980825049547	394.867278615487	579.009512505657	1061.074000782208	284.259272078182	532.732553565110	875.740194397412	189.831891167788	507.584252562391	1050.080156994299	155.645141597631	547.248734136921	942.753219266972	141.901443775711	582.827521427113	1130.245852782192	55.602130878817	578.623806462283	846.880722655229	39.583799031963	373.401638355485	919.610823514875	35.581835102264	291.783332365517	1003.782664135763	96.235353141236	317.041303425422	1131.992733178457	41.008136480063	286.887411843681	1000.308119811977	1093.990638736847	85.952548301651	1195.681387014404	921.456796884630	79.705182458214	984.251769257810	1089.255536154763	672.917370822335	1052.943300141379	837.951341313552	670.405189407201	
6	28.821071428571	811.791368375409	1019.451831771710	405.730695362875	1020.807412487207	1438.882587562368	228.207275951745	1113.933372660352	1360.609964395321	390.296935635883	1031.318908348351	1438.993908670937	562.435352867494	1019.575683321827	1499.334981500630	380.196834437546	1035.071889213471	952.827371539462	526.835403823812	1029.902826502811	965.364718190405	251.921763421135	1130.087493606724	801.564837621266	491.446627695980	1108.763960566384	679.146893632997	568.194014539452	1197.849714769490	649.634417370902	483.541631601922	1233.869982502926	542.467712352723	505.454888691327	1064.380071329645	748.794029531793	287.967500537526	969.330313570628	638.234530294248	229.999416989766	1045.392594530701	556.853279037019	297.989099955018	1040.791351322531	487.795701339766	309.490124016930	1013.393228390616	417.965581601704	301.336263538396	922.025124512380	304.444477531645	253.164189286585	969.788438184336	193.834040617460	326.975808169582	1173.661876252718	457.035502293021	516.958519158532	1066.263159927682	392.011380266461	580.158040737010	1076.929523918639	281.810570949274	533.659526978233	896.706481998310	177.719535194325	509.131732931304	1072.701547238985	152.750506596182	547.969949441162	966.502624458209	133.216535876153	584.021299151674	1158.249759333555	57.003564151006	578.681391973479	839.508762945131	39.633364904630	373.359020647036	912.219763763782	35.590389701368	291.764973640421	996.437809162572	96.207919158113	317.012668973358	1124.610948691288	40.918381262098	286.858448564552	1003.388538044784	1095.307658275588	84.521879399057	1206.446151937948	931.952486023939	78.332636522449	974.888535216020	1090.424481486251	673.914350355132	1028.364333118024	834.446816896888	675.459761597374	
